<svg width="23" height="27" viewBox="0 0 23 27" fill="none" xmlns="http://www.w3.org/2000/svg">
<path d="M21.8337 25.125V22.5417C21.8337 21.1714 21.2893 19.8572 20.3204 18.8883C19.3514 17.9193 18.0373 17.375 16.667 17.375H6.33366C4.96337 17.375 3.64921 17.9193 2.68027 18.8883C1.71134 19.8572 1.16699 21.1714 1.16699 22.5417V25.125M16.667 7.04167C16.667 9.89514 14.3538 12.2083 11.5003 12.2083C8.64685 12.2083 6.33366 9.89514 6.33366 7.04167C6.33366 4.1882 8.64685 1.875 11.5003 1.875C14.3538 1.875 16.667 4.1882 16.667 7.04167Z" stroke="#B3B3B3" stroke-width="2" stroke-linecap="round" stroke-linejoin="round"/>
<path 
d="M21.8337 25.125V22.5417C21.8337 21.1714 21.2893 19.8572 20.3204 18.8883C19.3514 17.9193 18.0373 17.375 16.667 17.375H6.33366C4.96337 17.375 3.64921 17.9193 2.68027 18.8883C1.71134 19.8572 1.16699 21.1714 1.16699 22.5417V25.125M16.667 7.04167C16.667 9.89514 14.3538 12.2083 11.5003 12.2083C8.64685 12.2083 6.33366 9.89514 6.33366 7.04167C6.33366 4.1882 8.64685 1.875 11.5003 1.875C14.3538 1.875 16.667 4.1882 16.667 7.04167Z" 
stroke="white" stroke-opacity="0.2" stroke-width="2" stroke-linecap="round" stroke-linejoin="round"/>
</svg>
