<svg width="18" height="20" viewBox="0 0 18 20" fill="none" xmlns="http://www.w3.org/2000/svg">
<path d="M14.8792 13.9635C17.8944 10.5 17.5613 6.21998 14.5461 3.28544C11.4191 0.242081 6.35378 0.237621 3.23241 3.27548C0.22266 6.20471 0.394389 11 2.91916 13.953C5.10829 16.5134 6.94658 18.001 7.39658 18.3512C7.46708 18.406 7.53318 18.4643 7.60108 18.5222C8.33258 19.1451 9.41078 19.159 10.1577 18.5637C10.2613 18.481 10.3632 18.3956 10.4699 18.3169C10.9405 17.97 12.4279 16.7793 14.8792 13.9635Z" stroke="white" stroke-width="1.4" stroke-linecap="round" stroke-linejoin="round"/>
<path opacity="0.4" d="M8.89453 12C10.5514 12 11.8945 10.6569 11.8945 9C11.8945 7.34315 10.5514 6 8.89453 6C7.23763 6 5.89453 7.34315 5.89453 9C5.89453 10.6569 7.23763 12 8.89453 12Z" stroke="white" stroke-width="1.4" stroke-linecap="round" stroke-linejoin="round"/>
</svg>
