<svg width="16" height="16" viewBox="0 0 16 16" fill="none" xmlns="http://www.w3.org/2000/svg">
<path d="M12.125 3.875H12.1325M4.25 0.5H11.75C13.8211 0.5 15.5 2.17893 15.5 4.25V11.75C15.5 13.8211 13.8211 15.5 11.75 15.5H4.25C2.17893 15.5 0.5 13.8211 0.5 11.75V4.25C0.5 2.17893 2.17893 0.5 4.25 0.5ZM11 7.5275C11.0926 8.15168 10.9859 8.78916 10.6953 9.34926C10.4047 9.90936 9.94486 10.3636 9.38122 10.6473C8.81758 10.931 8.17884 11.0297 7.55584 10.9294C6.93284 10.8292 6.35732 10.5351 5.91113 10.0889C5.46494 9.64268 5.1708 9.06716 5.07055 8.44416C4.9703 7.82116 5.06905 7.18242 5.35274 6.61878C5.63644 6.05514 6.09064 5.59531 6.65074 5.30468C7.21084 5.01406 7.84832 4.90744 8.4725 5C9.10919 5.09441 9.69864 5.3911 10.1538 5.84623C10.6089 6.30136 10.9056 6.89081 11 7.5275Z" stroke="white" stroke-linecap="round" stroke-linejoin="round"/>
</svg>
