<svg width="14" height="12" viewBox="0 0 14 12" fill="none" xmlns="http://www.w3.org/2000/svg">
<path d="M6.99967 6.07703L2.16634 3.0562V2.90211L6.73468 5.75732L6.99967 5.92295L7.26467 5.75732L12.598 2.42399L13.1663 2.06878V9.99999C13.1663 10.233 13.0892 10.42 12.9211 10.5881C12.753 10.7562 12.566 10.8333 12.333 10.8333H1.66634C1.43334 10.8333 1.24632 10.7562 1.07823 10.5881C0.910137 10.42 0.833008 10.233 0.833008 9.99999V2.06878L1.16634 2.27711V2.4312V3.33332V9.99999V10.5H1.66634H12.333H12.833V9.99999V3.33332V2.4312L12.068 2.90932L6.99967 6.07703ZM12.9995 1.49999H12.333H1.66634H0.999839C1.02335 1.46997 1.04946 1.44065 1.07823 1.41188C1.24632 1.24379 1.43334 1.16666 1.66634 1.16666H12.333C12.566 1.16666 12.753 1.24379 12.9211 1.41188C12.9499 1.44065 12.976 1.46997 12.9995 1.49999Z" fill="#1D1B20" stroke="white"/>
</svg>
