<svg width="32" height="20" viewBox="0 0 32 20" fill="none" xmlns="http://www.w3.org/2000/svg">
<path d="M19.7147 2.06621H11.3223V17.2622H19.7147V2.06621Z" fill="#FF5F00"/>
<path d="M11.8552 9.66418C11.8539 8.2007 12.183 6.75609 12.8177 5.43973C13.4524 4.12337 14.3759 2.96975 15.5185 2.06621C14.1036 0.9456 12.4043 0.248713 10.6149 0.0551948C8.82549 -0.138323 7.01814 0.17933 5.39943 0.971861C3.78072 1.76439 2.41596 2.99982 1.46115 4.53693C0.506337 6.07404 0 7.85082 0 9.66418C0 11.4775 0.506337 13.2543 1.46115 14.7914C2.41596 16.3285 3.78072 17.564 5.39943 18.3565C7.01814 19.149 8.82549 19.4667 10.6149 19.2732C12.4043 19.0796 14.1036 18.3828 15.5185 17.2622C14.376 16.3586 13.4524 15.205 12.8177 13.8886C12.183 12.5723 11.8539 11.1277 11.8552 9.66418Z" fill="#EB001B"/>
<path d="M31.0366 9.66418C31.0366 11.4775 30.5304 13.2543 29.5756 14.7914C28.6208 16.3285 27.2561 17.5639 25.6374 18.3565C24.0188 19.149 22.2114 19.4667 20.422 19.2732C18.6327 19.0796 16.9334 18.3828 15.5185 17.2622C16.6601 16.3577 17.583 15.2039 18.2175 13.8877C18.8521 12.5716 19.1818 11.1274 19.1818 9.66418C19.1818 8.20093 18.8521 6.75678 18.2175 5.44062C17.583 4.12446 16.6601 2.97066 15.5185 2.06621C16.9334 0.945598 18.6327 0.248708 20.422 0.0551923C22.2114 -0.138323 24.0188 0.179344 25.6374 0.971884C27.2561 1.76442 28.6208 2.99985 29.5756 4.53696C30.5304 6.07408 31.0366 7.85084 31.0366 9.66418Z" fill="#F79E1B"/>
<path d="M30.1215 15.6527V15.3416H30.246V15.2782H29.9289V15.3416H30.0535V15.6527H30.1215ZM30.7371 15.6527V15.2776H30.6399L30.5281 15.5356L30.4163 15.2776H30.319V15.6527H30.3877V15.3697L30.4925 15.6137H30.5637L30.6685 15.3691V15.6527H30.7371Z" fill="#F79E1B"/>
</svg>
