<svg width="46" height="20" viewBox="0 0 46 20" fill="none" xmlns="http://www.w3.org/2000/svg">
<path d="M42.883 0H3.12064C2.29363 -7.67422e-07 1.50044 0.438112 0.915314 1.21809C0.330186 1.99808 0.000975245 3.05614 0 4.15985L0 8.72734C0 9.83191 0.328781 10.8912 0.914014 11.6723C1.49925 12.4533 2.29299 12.8921 3.12064 12.8921H5.4096L8.832 19.375L12.2544 12.8921H42.8904C43.7158 12.8869 44.5062 12.446 45.0888 11.6657C45.6715 10.8853 45.999 9.82897 46 8.72734V4.15985C45.9942 3.05898 45.664 2.00538 45.0807 1.22692C44.4974 0.448464 43.7079 0.00771672 42.883 0Z" fill="#A02334"/>
</svg>
