<svg width="47" height="12" viewBox="0 0 47 12" fill="none" xmlns="http://www.w3.org/2000/svg">
<path fill-rule="evenodd" clip-rule="evenodd" d="M32.2852 3.2349H34.7501V6.95773L36.8823 3.2349H39.1443L34.5837 10.7613C34.5837 10.7613 34.1603 11.3926 33.6352 11.7266C33.2038 12.0012 32.6733 11.9888 32.5112 12C31.6103 11.9925 30.5237 11.9902 30.5237 11.9902L31.0479 10.1961L31.8961 10.1947C31.8961 10.1947 32.2843 10.157 32.4343 9.97506C32.5771 9.80161 32.6501 9.62816 32.6501 9.37376C32.6501 8.99242 32.2852 3.2349 32.2852 3.2349ZM6.67348 3.9784C6.33043 4.73397 5.26674 4.64805 5.26674 4.64805L4.02825 4.64254L4.48036 3.04245C4.48036 3.04245 5.58831 3.04636 6.13174 3.04636C6.71345 3.04636 6.89496 3.49072 6.67348 3.9784ZM9.48828 2.888C9.69911 1.30034 8.22943 0.89947 6.64043 0.89947H2.46483L0 9.43962H2.65326L3.48165 6.54L4.97 6.55154C4.97 6.55154 5.58421 6.51763 5.59634 7.06603C5.60923 7.65099 5.14031 8.72506 5.17057 9.43962H7.89628L7.89031 9.2122C7.89031 9.2122 7.66379 9.15504 7.689 8.85253C7.69945 8.72666 7.84567 8.32828 8.03709 7.79107C8.1525 7.55424 8.32654 6.99235 8.31048 6.53485C8.2905 5.96373 7.91346 5.69868 7.36985 5.51334C9.06437 5.13555 9.48828 2.888 9.48828 2.888ZM10.0903 3.2349H12.5104L11.5137 6.88015C11.5137 6.88015 11.2651 7.69307 12.065 7.75574C12.6969 7.80545 13.1671 7.08857 13.3212 6.60302C13.5236 5.96533 14.3102 3.23472 14.3102 3.23472H16.8034L14.9063 9.43945H12.7294L12.9968 8.55303C12.9968 8.55303 11.8863 9.84049 10.2362 9.68604C8.7695 9.54916 8.64307 8.53776 8.89723 7.27605C9.02198 6.65664 10.0903 3.2349 10.0903 3.2349ZM22.5195 3.99793C22.1742 4.91363 21.2227 4.8057 21.2227 4.8057L19.9237 4.80605L20.4365 2.99168C20.4365 2.99168 21.2587 2.99576 21.8018 2.99576C22.4666 2.99576 22.7079 3.498 22.5195 3.99793ZM25.2476 3.15004C25.4586 1.56219 24.1856 0.899292 22.5964 0.899292H18.421L15.9563 9.43945H18.6096L19.3556 6.80648L21.4696 6.81873C21.4696 6.81873 24.743 6.95045 25.2476 3.15004ZM27.4783 8.17542C27.0637 8.27537 26.561 8.3297 26.4612 7.97162C26.1875 6.9904 28.6039 6.70315 28.6039 6.70315C28.6204 7.5972 27.7965 8.09837 27.4783 8.17542ZM31.1338 6.37951C31.4525 5.34734 31.8555 4.37003 31.5312 3.82838C31.0344 2.99931 30.1366 2.92652 28.823 2.92652C27.3718 2.92652 25.5802 3.18856 24.9962 5.02317H27.4121C27.4121 5.02317 27.6323 4.33222 28.5391 4.37571C29.3418 4.41424 29.2979 4.9392 29.0021 5.22946C28.4833 5.73809 27.0506 5.45599 25.4638 5.97936C24.0775 6.43668 23.5923 8.16974 23.8935 8.8614C24.1854 9.53212 24.729 9.61751 25.4624 9.68604C26.6402 9.79611 27.5432 9.17173 27.9636 8.8053C27.9636 9.2122 27.9748 9.43945 27.9748 9.43945H30.5171L30.511 9.21203C30.511 9.21203 30.2845 9.15486 30.3097 8.85235C30.328 8.63079 30.7674 7.56489 31.1338 6.37951Z" fill="#382A8D"/>
<path fill-rule="evenodd" clip-rule="evenodd" d="M42.3062 1.80109L39.4604 11.2122L44.7871 6.50656L42.3062 1.80109Z" fill="#1D8546"/>
<path fill-rule="evenodd" clip-rule="evenodd" d="M40.4825 1.80109L37.6367 11.2122L42.9636 6.50656L40.4825 1.80109Z" fill="#EC6B00"/>
<path fill-rule="evenodd" clip-rule="evenodd" d="M45.7794 0.0926715C45.2386 0.0926715 44.7983 0.511113 44.7983 1.02542C44.7983 1.53955 45.2384 1.958 45.7794 1.958C46.3202 1.958 46.7604 1.53955 46.7604 1.02542C46.7604 0.510936 46.3202 0.0926715 45.7794 0.0926715ZM45.7643 1.408V0.681011H45.9169L46.0976 1.19567C46.1145 1.24361 46.1264 1.27947 46.1344 1.30326C46.143 1.27681 46.1565 1.23793 46.1751 1.18662L46.3582 0.681011H46.4941V1.408H46.3966V0.799424L46.1744 1.408H46.0833L45.862 0.789128V1.408H45.7643ZM45.2562 1.408V0.766936H45.0044V0.681188H45.6104V0.766936H45.3576V1.408H45.2562ZM45.7794 2.05031C45.1847 2.05031 44.7012 1.5905 44.7012 1.02524C44.7012 0.459984 45.1848 0 45.7794 0C46.3738 0 46.8577 0.459984 46.8577 1.02524C46.8577 1.59033 46.3738 2.05031 45.7794 2.05031Z" fill="black"/>
</svg>
