<svg width="31" height="31" viewBox="0 0 31 31" fill="none" xmlns="http://www.w3.org/2000/svg">
<rect width="31" height="31" stroke="black"/>
<path d="M25.8334 27.125V24.5417C25.8334 23.1714 25.2891 21.8572 24.3201 20.8883C23.3512 19.9193 22.037 19.375 20.6667 19.375H10.3334C8.96313 19.375 7.64897 19.9193 6.68003 20.8883C5.71109 21.8572 5.16675 23.1714 5.16675 24.5417V27.125M20.6667 9.04167C20.6667 11.8951 18.3536 14.2083 15.5001 14.2083C12.6466 14.2083 10.3334 11.8951 10.3334 9.04167C10.3334 6.1882 12.6466 3.875 15.5001 3.875C18.3536 3.875 20.6667 6.1882 20.6667 9.04167Z" stroke="#B3B3B3" stroke-width="2" stroke-linecap="round" stroke-linejoin="round"/>
<path d="M25.8334 27.125V24.5417C25.8334 23.1714 25.2891 21.8572 24.3201 20.8883C23.3512 19.9193 22.037 19.375 20.6667 19.375H10.3334C8.96313 19.375 7.64897 19.9193 6.68003 20.8883C5.71109 21.8572 5.16675 23.1714 5.16675 24.5417V27.125M20.6667 9.04167C20.6667 11.8951 18.3536 14.2083 15.5001 14.2083C12.6466 14.2083 10.3334 11.8951 10.3334 9.04167C10.3334 6.1882 12.6466 3.875 15.5001 3.875C18.3536 3.875 20.6667 6.1882 20.6667 9.04167Z" stroke="white" stroke-opacity="0.2" stroke-width="2" stroke-linecap="round" stroke-linejoin="round"/>
</svg>
