<svg width="46" height="15" viewBox="0 0 46 15" fill="none" xmlns="http://www.w3.org/2000/svg">
<path d="M22.4933 0.260013L19.4577 14.473H15.7871L18.8231 0.260013H22.4933ZM37.9368 9.43736L39.8694 4.09991L40.9813 9.43736H37.9368ZM42.0323 14.473H45.4275L42.4648 0.260013H39.3309C38.6267 0.260013 38.0325 0.670273 37.768 1.30276L32.261 14.473H36.1157L36.881 12.3506H41.5903L42.0323 14.473ZM32.4523 9.83232C32.468 6.08104 27.2731 5.87456 27.3091 4.19888C27.3199 3.6883 27.8053 3.14669 28.8657 3.00768C29.3925 2.93886 30.8409 2.88622 32.4855 3.64422L33.1295 0.630237C32.2461 0.309046 31.1094 0 29.6956 0C26.0677 0 23.5141 1.9321 23.4925 4.69866C23.4696 6.74457 25.3155 7.88628 26.7064 8.56645C28.1363 9.26327 28.6169 9.70952 28.6106 10.3326C28.6012 11.2867 27.4699 11.7068 26.4144 11.7235C24.5686 11.7527 23.4975 11.2246 22.6437 10.826L21.9786 13.9403C22.8359 14.3349 24.419 14.6776 26.0614 14.6952C29.9171 14.6952 32.4397 12.7869 32.4523 9.83232ZM17.2481 0.260013L11.301 14.473H7.42021L4.4938 3.13004C4.31595 2.43143 4.16146 2.17591 3.62118 1.88126C2.73957 1.40218 1.28221 0.951878 0 0.672973L0.0875764 0.260013H6.33336C7.12918 0.260013 7.84551 0.790832 8.02606 1.70897L9.5719 9.93399L13.3916 0.260013H17.2481Z" fill="#1434CB"/>
</svg>
